<svg xmlns="http://www.w3.org/2000/svg" aria-hidden="true" style="position:absolute;width:0;height:0;overflow:hidden">
  <defs>
<symbol id="icon-t" viewBox="0 0 32 32">
      <path d="M28.391 3.885c-3.937 1.631-20.82 8.624-25.484 10.53C-.221 15.636 1.61 16.78 1.61 16.78s2.67.916 4.96 1.602c2.289.687 3.51-.076 3.51-.076l10.758-7.249c3.815-2.594 2.9-.458 1.984.458-1.984 1.984-5.265 5.112-8.012 7.63-1.221 1.068-.611 1.984-.076 2.442 1.984 1.679 7.401 5.112 7.706 5.341 1.612 1.141 4.782 2.784 5.265-.687l1.908-11.979c.611-4.044 1.221-7.783 1.297-8.851.229-2.595-2.518-1.526-2.518-1.526z"/>
    </symbol>
    <symbol id="icon-plus" viewBox="0 0 32 32">
<path d="M23.813 14.75h-6.563v-6.563c0-0.688-0.563-1.25-1.25-1.25s-1.25 0.563-1.25 1.25v6.563h-6.563c-0.688 0-1.25 0.563-1.25 1.25s0.563 1.25 1.25 1.25h6.563v6.563c0 0.688 0.563 1.25 1.25 1.25s1.25-0.563 1.25-1.25v-6.563h6.563c0.688 0 1.25-0.563 1.25-1.25s-0.563-1.25-1.25-1.25z"></path>
</symbol>
<symbol id="icon-minus" viewBox="0 0 32 32">
<path d="M0 12.542h32v6.915h-32v-6.915z"></path>
</symbol>
<symbol id="icon-add" viewBox="0 0 32 32">
<path d="M16 0c-8.836 0-16 7.164-16 16s7.164 16 16 16 16-7.164 16-16-7.163-16-16-16zM25.6 18.88h-6.72v6.72h-5.76v-6.72h-6.72v-5.76h6.72v-6.72h5.76v6.72h6.72v5.76z"></path>
</symbol>
    </defs>
</svg>